<mxfile host="app.diagrams.net" agent="Mozilla/5.0 (Windows NT 10.0; Win64; x64) AppleWebKit/537.36 (KHTML, like Gecko) Chrome/135.0.0.0 Safari/537.36" version="26.0.11">
  <diagram name="Page-1" id="euKzJiCRUN4FTXfyrkzB">
    <mxGraphModel dx="1509" dy="777" grid="1" gridSize="10" guides="1" tooltips="1" connect="1" arrows="1" fold="1" page="1" pageScale="1" pageWidth="850" pageHeight="1100" math="0" shadow="0">
      <root>
        <mxCell id="0" />
        <mxCell id="1" parent="0" />
        <mxCell id="HvIzvHt6PHK-XVXpq7xh-12" style="edgeStyle=orthogonalEdgeStyle;rounded=0;orthogonalLoop=1;jettySize=auto;html=1;entryX=0;entryY=0.5;entryDx=0;entryDy=0;" edge="1" parent="1" source="HvIzvHt6PHK-XVXpq7xh-1" target="HvIzvHt6PHK-XVXpq7xh-11">
          <mxGeometry relative="1" as="geometry" />
        </mxCell>
        <mxCell id="HvIzvHt6PHK-XVXpq7xh-13" style="edgeStyle=orthogonalEdgeStyle;rounded=0;orthogonalLoop=1;jettySize=auto;html=1;entryX=1;entryY=0.5;entryDx=0;entryDy=0;" edge="1" parent="1" source="HvIzvHt6PHK-XVXpq7xh-1" target="HvIzvHt6PHK-XVXpq7xh-10">
          <mxGeometry relative="1" as="geometry" />
        </mxCell>
        <mxCell id="HvIzvHt6PHK-XVXpq7xh-14" style="edgeStyle=orthogonalEdgeStyle;rounded=0;orthogonalLoop=1;jettySize=auto;html=1;exitX=0.25;exitY=0;exitDx=0;exitDy=0;entryX=0.25;entryY=1;entryDx=0;entryDy=0;" edge="1" parent="1" source="HvIzvHt6PHK-XVXpq7xh-1" target="HvIzvHt6PHK-XVXpq7xh-9">
          <mxGeometry relative="1" as="geometry" />
        </mxCell>
        <mxCell id="HvIzvHt6PHK-XVXpq7xh-1" value="RPI ZERO" style="rounded=0;whiteSpace=wrap;html=1;" vertex="1" parent="1">
          <mxGeometry x="280" y="520" width="160" height="40" as="geometry" />
        </mxCell>
        <mxCell id="HvIzvHt6PHK-XVXpq7xh-2" value="Camera" style="ellipse;whiteSpace=wrap;html=1;" vertex="1" parent="1">
          <mxGeometry x="305" y="600" width="110" height="40" as="geometry" />
        </mxCell>
        <mxCell id="HvIzvHt6PHK-XVXpq7xh-3" value="" style="endArrow=classic;startArrow=classic;html=1;rounded=0;exitX=0.5;exitY=0;exitDx=0;exitDy=0;" edge="1" parent="1" source="HvIzvHt6PHK-XVXpq7xh-2">
          <mxGeometry width="50" height="50" relative="1" as="geometry">
            <mxPoint x="310" y="610" as="sourcePoint" />
            <mxPoint x="360" y="560" as="targetPoint" />
          </mxGeometry>
        </mxCell>
        <mxCell id="HvIzvHt6PHK-XVXpq7xh-4" value="Badger" style="shape=umlActor;verticalLabelPosition=bottom;verticalAlign=top;html=1;outlineConnect=0;" vertex="1" parent="1">
          <mxGeometry x="340" y="670" width="40" height="60" as="geometry" />
        </mxCell>
        <mxCell id="HvIzvHt6PHK-XVXpq7xh-7" value="" style="endArrow=none;html=1;rounded=0;" edge="1" parent="1">
          <mxGeometry width="50" height="50" relative="1" as="geometry">
            <mxPoint x="330" y="660" as="sourcePoint" />
            <mxPoint x="360" y="640" as="targetPoint" />
          </mxGeometry>
        </mxCell>
        <mxCell id="HvIzvHt6PHK-XVXpq7xh-8" value="" style="endArrow=none;html=1;rounded=0;entryX=0.5;entryY=1;entryDx=0;entryDy=0;" edge="1" parent="1" target="HvIzvHt6PHK-XVXpq7xh-2">
          <mxGeometry width="50" height="50" relative="1" as="geometry">
            <mxPoint x="390" y="660" as="sourcePoint" />
            <mxPoint x="370" y="650" as="targetPoint" />
          </mxGeometry>
        </mxCell>
        <mxCell id="HvIzvHt6PHK-XVXpq7xh-15" style="edgeStyle=orthogonalEdgeStyle;rounded=0;orthogonalLoop=1;jettySize=auto;html=1;exitX=0.75;exitY=1;exitDx=0;exitDy=0;entryX=0.75;entryY=0;entryDx=0;entryDy=0;" edge="1" parent="1" source="HvIzvHt6PHK-XVXpq7xh-9" target="HvIzvHt6PHK-XVXpq7xh-1">
          <mxGeometry relative="1" as="geometry" />
        </mxCell>
        <mxCell id="HvIzvHt6PHK-XVXpq7xh-9" value="App.py&amp;nbsp;&lt;div&gt;(Google Cloud Run)&lt;/div&gt;" style="rounded=0;whiteSpace=wrap;html=1;" vertex="1" parent="1">
          <mxGeometry x="280" y="320" width="160" height="50" as="geometry" />
        </mxCell>
        <mxCell id="HvIzvHt6PHK-XVXpq7xh-10" value="Speaker" style="ellipse;whiteSpace=wrap;html=1;" vertex="1" parent="1">
          <mxGeometry x="70" y="520" width="120" height="40" as="geometry" />
        </mxCell>
        <mxCell id="HvIzvHt6PHK-XVXpq7xh-11" value="Floodlight" style="ellipse;whiteSpace=wrap;html=1;" vertex="1" parent="1">
          <mxGeometry x="500" y="520" width="130" height="40" as="geometry" />
        </mxCell>
        <mxCell id="HvIzvHt6PHK-XVXpq7xh-16" value="Cloud&lt;div&gt;Vision&lt;/div&gt;" style="ellipse;whiteSpace=wrap;html=1;aspect=fixed;" vertex="1" parent="1">
          <mxGeometry x="550" y="305" width="80" height="80" as="geometry" />
        </mxCell>
        <mxCell id="HvIzvHt6PHK-XVXpq7xh-19" value="Google&lt;div&gt;Drive&lt;/div&gt;" style="ellipse;whiteSpace=wrap;html=1;aspect=fixed;" vertex="1" parent="1">
          <mxGeometry x="550" y="210" width="80" height="80" as="geometry" />
        </mxCell>
        <mxCell id="HvIzvHt6PHK-XVXpq7xh-22" value="" style="endArrow=classic;startArrow=classic;html=1;rounded=0;entryX=-0.002;entryY=0.544;entryDx=0;entryDy=0;entryPerimeter=0;" edge="1" parent="1" target="HvIzvHt6PHK-XVXpq7xh-16">
          <mxGeometry width="50" height="50" relative="1" as="geometry">
            <mxPoint x="440" y="350" as="sourcePoint" />
            <mxPoint x="490" y="300" as="targetPoint" />
          </mxGeometry>
        </mxCell>
        <mxCell id="HvIzvHt6PHK-XVXpq7xh-23" value="" style="endArrow=classic;startArrow=classic;html=1;rounded=0;exitX=0.993;exitY=0.151;exitDx=0;exitDy=0;exitPerimeter=0;" edge="1" parent="1" source="HvIzvHt6PHK-XVXpq7xh-9">
          <mxGeometry width="50" height="50" relative="1" as="geometry">
            <mxPoint x="500" y="310" as="sourcePoint" />
            <mxPoint x="550" y="260" as="targetPoint" />
          </mxGeometry>
        </mxCell>
        <mxCell id="HvIzvHt6PHK-XVXpq7xh-24" value="Sheets" style="ellipse;whiteSpace=wrap;html=1;aspect=fixed;" vertex="1" parent="1">
          <mxGeometry x="550" y="120" width="80" height="80" as="geometry" />
        </mxCell>
        <mxCell id="HvIzvHt6PHK-XVXpq7xh-26" value="" style="endArrow=classic;startArrow=classic;html=1;rounded=0;entryX=0;entryY=0.5;entryDx=0;entryDy=0;" edge="1" parent="1" target="HvIzvHt6PHK-XVXpq7xh-24">
          <mxGeometry width="50" height="50" relative="1" as="geometry">
            <mxPoint x="420" y="320" as="sourcePoint" />
            <mxPoint x="470" y="270" as="targetPoint" />
          </mxGeometry>
        </mxCell>
        <mxCell id="HvIzvHt6PHK-XVXpq7xh-27" value="Dashboard UI" style="rounded=0;whiteSpace=wrap;html=1;" vertex="1" parent="1">
          <mxGeometry x="280" y="160" width="120" height="40" as="geometry" />
        </mxCell>
        <mxCell id="HvIzvHt6PHK-XVXpq7xh-28" value="" style="endArrow=classic;startArrow=classic;html=1;rounded=0;exitX=0.375;exitY=0;exitDx=0;exitDy=0;exitPerimeter=0;" edge="1" parent="1" source="HvIzvHt6PHK-XVXpq7xh-9">
          <mxGeometry width="50" height="50" relative="1" as="geometry">
            <mxPoint x="290" y="250" as="sourcePoint" />
            <mxPoint x="340" y="200" as="targetPoint" />
          </mxGeometry>
        </mxCell>
        <mxCell id="HvIzvHt6PHK-XVXpq7xh-29" value="Telegram" style="ellipse;whiteSpace=wrap;html=1;" vertex="1" parent="1">
          <mxGeometry x="70" y="320" width="130" height="40" as="geometry" />
        </mxCell>
        <mxCell id="HvIzvHt6PHK-XVXpq7xh-30" value="" style="endArrow=classic;startArrow=classic;html=1;rounded=0;exitX=1;exitY=0.5;exitDx=0;exitDy=0;" edge="1" parent="1" source="HvIzvHt6PHK-XVXpq7xh-29">
          <mxGeometry width="50" height="50" relative="1" as="geometry">
            <mxPoint x="230" y="390" as="sourcePoint" />
            <mxPoint x="280" y="340" as="targetPoint" />
          </mxGeometry>
        </mxCell>
        <mxCell id="HvIzvHt6PHK-XVXpq7xh-31" value="" style="triangle;whiteSpace=wrap;html=1;rotation=-60;fillColor=#fff2cc;strokeColor=#d6b656;" vertex="1" parent="1">
          <mxGeometry x="454.84" y="520" width="100" height="155" as="geometry" />
        </mxCell>
        <mxCell id="HvIzvHt6PHK-XVXpq7xh-33" value="" style="endArrow=none;html=1;rounded=0;" edge="1" parent="1">
          <mxGeometry width="50" height="50" relative="1" as="geometry">
            <mxPoint x="160" y="590" as="sourcePoint" />
            <mxPoint x="190" y="570" as="targetPoint" />
          </mxGeometry>
        </mxCell>
        <mxCell id="HvIzvHt6PHK-XVXpq7xh-34" value="" style="endArrow=none;html=1;rounded=0;" edge="1" parent="1">
          <mxGeometry width="50" height="50" relative="1" as="geometry">
            <mxPoint x="160" y="600" as="sourcePoint" />
            <mxPoint x="200" y="570" as="targetPoint" />
          </mxGeometry>
        </mxCell>
        <mxCell id="HvIzvHt6PHK-XVXpq7xh-35" value="" style="endArrow=none;html=1;rounded=0;" edge="1" parent="1">
          <mxGeometry width="50" height="50" relative="1" as="geometry">
            <mxPoint x="160" y="610" as="sourcePoint" />
            <mxPoint x="210" y="570" as="targetPoint" />
          </mxGeometry>
        </mxCell>
        <mxCell id="HvIzvHt6PHK-XVXpq7xh-36" value="" style="endArrow=none;html=1;rounded=0;" edge="1" parent="1">
          <mxGeometry width="50" height="50" relative="1" as="geometry">
            <mxPoint x="160" y="620" as="sourcePoint" />
            <mxPoint x="220" y="570" as="targetPoint" />
          </mxGeometry>
        </mxCell>
        <mxCell id="HvIzvHt6PHK-XVXpq7xh-37" value="" style="endArrow=none;html=1;rounded=0;" edge="1" parent="1">
          <mxGeometry width="50" height="50" relative="1" as="geometry">
            <mxPoint x="160" y="630" as="sourcePoint" />
            <mxPoint x="230" y="570" as="targetPoint" />
          </mxGeometry>
        </mxCell>
        <mxCell id="HvIzvHt6PHK-XVXpq7xh-38" value="" style="endArrow=none;html=1;rounded=0;" edge="1" parent="1">
          <mxGeometry width="50" height="50" relative="1" as="geometry">
            <mxPoint x="160" y="640" as="sourcePoint" />
            <mxPoint x="240" y="570" as="targetPoint" />
          </mxGeometry>
        </mxCell>
        <mxCell id="HvIzvHt6PHK-XVXpq7xh-39" value="" style="endArrow=none;html=1;rounded=0;" edge="1" parent="1">
          <mxGeometry width="50" height="50" relative="1" as="geometry">
            <mxPoint x="160" y="650" as="sourcePoint" />
            <mxPoint x="250" y="570" as="targetPoint" />
          </mxGeometry>
        </mxCell>
        <mxCell id="HvIzvHt6PHK-XVXpq7xh-40" value="" style="triangle;whiteSpace=wrap;html=1;rotation=0;" vertex="1" parent="1">
          <mxGeometry x="160" y="560" width="20" height="20" as="geometry" />
        </mxCell>
      </root>
    </mxGraphModel>
  </diagram>
</mxfile>
